<svg id="Capa_1" enable-background="new 0 0 512.003 512.003" height="512" viewBox="0 0 512.003 512.003" width="512" xmlns="http://www.w3.org/2000/svg"><g><g><g><path d="m256.002 391.003c-4.932 0-9.548-2.424-12.348-6.484l-160-232c-3.165-4.589-3.524-10.554-.932-15.49 2.591-4.935 7.706-8.026 13.28-8.026h320c5.574 0 10.688 3.091 13.28 8.026 2.592 4.936 2.232 10.901-.932 15.49l-160 232c-2.801 4.06-7.417 6.484-12.348 6.484zm-131.435-232 131.434 190.579 131.434-190.579z" fill="#222221"/></g><g><path d="m256.002 512.003c-8.284 0-15-6.716-15-15v-121c0-8.284 6.716-15 15-15s15 6.716 15 15v121c0 8.284-6.716 15-15 15z" fill="#222221"/></g><g><path d="m368.002 512.003h-224c-8.284 0-15-6.716-15-15s6.716-15 15-15h224c8.284 0 15 6.716 15 15s-6.716 15-15 15z" fill="#222221"/></g><g><path d="m255.99 287.006c-2.247 0-4.527-.506-6.676-1.576-7.415-3.693-10.433-12.698-6.739-20.114l128-257c3.692-7.415 12.697-10.433 20.114-6.739 7.415 3.693 10.433 12.699 6.739 20.114l-128 257c-2.623 5.267-7.927 8.315-13.438 8.315z" fill="#222221"/></g><g><path d="m350.478 253.995c-2.859 0-5.748-.815-8.306-2.52l-22.49-14.99c-9.527-6.354-21.835-6.354-31.358-.002-19.637 13.091-45.009 13.091-64.643.001-9.524-6.35-21.834-6.35-31.358 0l-22.492 14.991c-6.894 4.595-16.206 2.731-20.801-4.162s-2.731-16.207 4.162-20.801l22.49-14.99c19.632-13.089 45.006-13.089 64.64.001 9.525 6.35 21.833 6.35 31.359 0 19.634-13.093 45.009-13.092 64.643.001l22.487 14.988c6.894 4.594 8.757 13.907 4.162 20.801-2.889 4.336-7.647 6.682-12.495 6.682z" fill="#222221"/></g></g></g></svg>