<svg height="496pt" viewBox="-69 0 496 496" width="496pt" xmlns="http://www.w3.org/2000/svg"><path d="m352.953125 410.9375c-47.097656-57.5625-81.617187-122.921875-102.609375-194.273438l-7.511719-25.542968c.199219-13.351563 4.816407-26.417969 13.160157-36.855469l2.078124-2.585937c2.21875-2.769532 4.167969-5.710938 5.960938-8.742188l68.847656-17.21875-26.054687-84.734375c-6.0625-19.671875-22.367188-34.398437-42.542969-38.441406l-11.953125-2.382813-31.609375-.160156-6.664062 23.335938c-6.046876 21.175781-18.480469 40.296874-35.292969 54.449218-16.816407-14.152344-29.25-33.273437-35.296875-54.441406l-6.664063-23.34375h-30.039062l-13.515625 2.542969c-20.175782 4.03125-36.484375 18.769531-42.542969 38.441406l-26.0625 84.726563 68.855469 17.21875c1.792968 3.03125 3.75 5.972656 5.96875 8.742187l2.0625 2.585937c8.351562 10.4375 12.96875 23.503907 13.167968 36.855469l-7.511718 25.542969c-20.992188 71.351562-55.511719 136.710938-102.609375 194.273438l-4.574219 5.605468 5.121094 5.121094c9.03125 9.03125 18.582031 14.167969 28.488281 15.335938 3.757813 10.855468 11.238281 20.046874 21.167969 25.785156 9.878906 5.703125 21.503906 7.605468 32.773437 5.46875 6.449219 9.457031 16.015625 16.355468 27.042969 19.304687 11.007812 2.953125 22.75 1.785157 33.070312-3.191406 8.648438 7.457031 19.6875 11.640625 31.097657 11.640625 11.40625 0 22.445312-4.183594 31.117187-11.648438 10.304688 4.96875 22.023438 6.160157 33.074219 3.191407 11.023437-2.949219 20.589844-9.839844 27.039063-19.304688 11.246093 2.128907 22.878906.242188 32.777343-5.46875 9.925781-5.738281 17.414063-14.929687 21.167969-25.785156 9.894531-1.167969 19.453125-6.304687 28.488281-15.335937l5.117188-5.121094zm-61.425781-365.25 21.113281 68.59375-40.710937 10.175781c1.832031-6.601562 2.832031-13.449219 2.832031-20.367187 0-11.769532-2.785157-23.546875-8.042969-34.058594-5.207031-10.414062-7.957031-22.078125-7.957031-33.71875v-18.550781l2.375.46875c14.421875 2.890625 26.0625 13.410156 30.390625 27.457031zm-246.640625 68.601562 21.113281-68.59375c4.328125-14.054687 15.96875-24.574218 30.390625-27.464843l2.371094-.46875v18.550781c0 11.640625-2.753907 23.304688-7.960938 33.71875-5.257812 10.511719-8.039062 22.296875-8.039062 34.058594 0 6.917968 1 13.765625 2.839843 20.375zm67.058593 27.382813c-8.503906-10.625-13.183593-23.96875-13.183593-37.582031 0-9.296875 2.191406-18.601563 6.351562-26.90625 6.3125-12.625 9.648438-26.757813 9.648438-40.871094v-20.3125h9.957031l3.351562 11.734375c7.570313 26.480469 23.867188 50.152344 45.890626 66.664063l4.800781 3.601562 4.796875-3.601562c22.027344-16.511719 38.320312-40.183594 45.890625-66.664063l3.351562-11.734375h9.960938v20.3125c0 14.113281 3.335937 28.246094 9.644531 40.871094 4.160156 8.3125 6.355469 17.617187 6.355469 26.90625 0 13.613281-4.683594 26.957031-13.175781 37.582031l-2.082032 2.59375c-9.121094 11.40625-14.726562 25.285156-16.273437 39.734375h-96.941407c-1.535156-14.449219-7.144531-28.335938-16.273437-39.742188zm-49.183593 307.25c-7.921875-4.578125-13.320313-12.152344-15.195313-21.335937l-1.390625-6.800782-6.917969.414063c-5.730468.3125-11.578124-1.664063-17.472656-6.136719 45.992188-57.75 79.863282-122.949219 100.734375-193.894531l6.222657-21.167969h17.347656c-6.042969 86.3125-26.546875 170.265625-61.273438 249.617188l-1.304687 2.992187c-7.191407 1.152344-14.40625-.023437-20.75-3.6875zm176.046875 23.175781c-8.832032 2.367188-17.992188.832032-25.832032-4.335937l-5.792968-3.824219-4.597656 5.183594c-6.226563 7.015625-14.683594 10.878906-23.824219 10.878906-9.144531 0-17.601563-3.863281-23.832031-10.871094l-4.601563-5.183594-5.792969 3.824219c-7.832031 5.167969-17.023437 6.695313-25.832031 4.335938-8.390625-2.25-15.207031-7.792969-19.472656-15.53125l.242187-.542969c35.617188-81.382812 56.597656-167.488281 62.664063-256.03125h33.246093c6.066407 88.542969 27.050782 174.648438 62.648438 256.007812l.242188.558594c-4.257813 7.738282-11.074219 13.28125-19.464844 15.53125zm79.457031-50.890625-6.921875-.414062-1.390625 6.800781c-1.875 9.175781-7.273437 16.75-15.191406 21.328125-6.355469 3.664063-13.5625 4.839844-20.753907 3.6875l-1.3125-3c-34.71875-79.34375-55.222656-163.289063-61.269531-249.609375h17.34375l6.222657 21.175781c20.863281 70.953125 54.742187 136.144531 100.734374 193.894531-5.871093 4.464844-11.664062 6.433594-17.460937 6.136719zm0 0"/><path d="m170.761719 112h16v16h-16zm0 0"/><path d="m170.761719 152h16v16h-16zm0 0"/></svg>