<svg height="512" viewBox="0 0 40 60" width="512" xmlns="http://www.w3.org/2000/svg"><g id="Page-1" fill="none" fill-rule="evenodd"><g id="004---Pregnant-Woman" fill="rgb(0,0,0)" fill-rule="nonzero" transform="translate(-1)"><path id="Shape" d="m8.686 51.033c-1.05199448 2.5278857-1.62375217 5.2296612-1.686 7.967 0 .5522847.44771525 1 1 1h30c.2940076-.0000863.5730803-.1295502.7630182-.3539696.1899378-.2244194.2714931-.5210526.2229818-.8110304-.082-.5-2.07-12.24-6.091-20.281-.9195939-2.0380831-1.3869693-4.2511226-1.37-6.487 2.1156161.4216253 4.2518809.7320513 6.4.93l.075.003c.4586794-.0000121.8585409-.3120689.97-.757 1.611-6.441 1.319-15.359 1.126-21.26-.051-1.57-.1-2.932-.1-3.96-.0027913-1.97146317-.7715592-3.86469752-2.144-5.28-1.0062757-1.0919743-2.4172214-1.72223528-3.902-1.743h-11.783c-1.0517185-.00302807-2.027207.54836802-2.567 1.451-1.3272842 2.27281384-3.130522 4.2316091-5.286 5.742-.5296697.35003312-1.0939799.64458694-1.684.879-2.378945.92771801-3.89306351 3.2783527-3.754 5.828.06778232 1.8900376.89264293 3.6734518 2.289 4.949-.2090953.0745313-.4134714.1616917-.612.261-1.22678129.5920061-2.12027483 1.7067597-2.431 3.033-4.63548701 3.0542864-7.33668365 8.3099002-7.122 13.857 0 8.3 4.005 12.721 7.686 15.033zm12.624-48.547c.1805102-.30124508.5058128-.48572243.857-.486h4.766c-.208 1.937-1.1 6-4.933 6-1.6302158-.00079724-3.2567326-.15514559-4.858-.461 1.6315419-1.46897616 3.0361609-3.17184078 4.168-5.053zm-10.435 11.346c-.1139766-1.7053986.8957735-3.2863001 2.491-3.9.5682062-.23195859 1.1163851-.51022877 1.639-.832 2.2853535.59755389 4.6378164.9000134 7 .9 4.991 0 6.667-4.777 6.95-8h1.791c-1.5979988 6.59500816-1.9217989 13.4345204-.954 20.151-1.5477416-.2986256-3.1140385-.4914058-4.688-.577-1.2761373-.0378-2.544474-.2131477-3.783-.523-.84-.28-1.7-.633-2.524-.974-1.2998411-.5860215-2.6513152-1.0500154-4.037-1.386-2.1905774-.6376092-3.7450583-2.5818107-3.885-4.859zm.572 7.063c.8627702-.398256 1.8339657-.4964667 2.759-.279.0819464.0272223.1669069.0443487.253.051 1.2232532.3186385 2.4174787.7397953 3.57 1.259.86.354 1.749.721 2.655 1.023 1.3936744.3686708 2.8250183.57636 4.266.619 2.849.213 6.08.454 8.45 2.232.2858125.2143594.6642734.2599564.9928203.1196152.3285469-.1403411.5572656-.4452994.6-.8.0427344-.3547005-.1070078-.7052558-.3928203-.9196152-.8185116-.6000625-1.7190617-1.0793007-2.674-1.423-1.1537191-6.9109781-.8581323-13.98633333.868-20.777h1.156c.9456252.03005088 1.8388042.44164913 2.476 1.141.9929789 1.0415298 1.5552659 2.42009748 1.574 3.859 0 1.068.045 2.453.1 4.048.181 5.532.45 13.765-.871 19.869-3.029-.339-13.568-1.817-22.639-6.734-1.229441-1.0850511-2.7367356-1.8063225-4.353-2.083.2553149-.5258324.682067-.9490575 1.21-1.2zm-2.462 3.105h.015c1.5878554.0433315 3.1089389.6481509 4.293 1.707.0677173.0672802.1444502.1248299.228.171 5.0361595 2.6473837 10.4130457 4.5882986 15.979 5.768-.0649006 2.6876769.4822268 5.3549229 1.6 7.8 3.173 6.336 5.089 15.369 5.7 18.554h-27.749c.15386199-2.0603211.62613455-4.0843464 1.4-6 3.098043 1.4406534 6.4774627 2.1750128 9.894 2.15.925474.0000474 1.8502347-.0513653 2.77-.154.355122-.0396565.6621118-.2657559.8053293-.5931288s.1009045-.7062836-.111-.994c-.2119045-.2877165-.5612073-.4405277-.9163293-.4008712-4.2718241.5274315-8.6031602-.2532689-12.422-2.239-3.41-1.9-7.471-5.828-7.471-13.769 0-5.207 2.029-9.231 5.985-12z"/><path id="Shape" d="m11.542 44.236c.568.474 1.172.979 1.807 1.523.374224.3200877.925776.3200877 1.3 0 .635-.544 1.239-1.049 1.807-1.523 3.344-2.786 5.544-4.626 5.544-7.478.0466802-1.231091-.4040334-2.4291723-1.2505664-3.3242398-.846533-.8950676-2.0176536-1.4118056-3.2494336-1.4337602-1.324157-.001809-2.5904172.5426829-3.5 1.505-.9095828-.9623171-2.175843-1.506809-3.5-1.505-1.23178001.0219546-2.40290059.5386926-3.24943358 1.4337602-.84653298.8950675-1.29724663 2.0931488-1.25056642 3.3242398 0 2.852 2.2 4.692 5.542 7.478zm-1.042-10.236c1.0932861.0381433 2.0850404.6511449 2.608 1.612.1701743.3330616.5119859.5433182.886.545h.006c.3750674-.0015512.7181269-.2116269.89-.545.5231667-.9615996 1.5159297-1.5747543 2.61-1.612.7021559.020371 1.3656764.3260542 1.8374444.8465087s.7110238 1.210714.6625556 1.9114913c0 1.916-1.815 3.432-4.823 5.943-.377.315-.77.642-1.177.986-.407-.344-.8-.671-1.177-.986-3.008-2.511-4.823-4.027-4.823-5.943-.0484682-.7007773.19078757-1.3910368.6625556-1.9114913.47176802-.5204545 1.13528847-.8261377 1.8374444-.8465087z"/></g></g></svg>